<svg width="18" height="16" viewBox="0 0 18 16" fill="none" xmlns="http://www.w3.org/2000/svg">
<path d="M14.7288 4.66665V2.99998H13.0622V1.74998H14.7288V0.083313H15.9788V1.74998H17.6455V2.99998H15.9788V4.66665H14.7288ZM1.64551 15.9166C1.22884 15.9166 0.874674 15.7708 0.583008 15.4791C0.291341 15.1875 0.145508 14.8333 0.145508 14.4166V4.91665C0.145508 4.49998 0.291341 4.14581 0.583008 3.85415C0.874674 3.56248 1.22884 3.41665 1.64551 3.41665H4.18717L5.72884 1.74998H10.7705V2.99998H6.29134L4.74967 4.66665H1.64551C1.57606 4.66665 1.51717 4.69081 1.46884 4.73915C1.41995 4.78803 1.39551 4.8472 1.39551 4.91665V14.4166C1.39551 14.4861 1.41995 14.5453 1.46884 14.5941C1.51717 14.6425 1.57606 14.6666 1.64551 14.6666H14.4788C14.5483 14.6666 14.6075 14.6425 14.6563 14.5941C14.7047 14.5453 14.7288 14.4861 14.7288 14.4166V6.95831H15.9788V14.4166C15.9788 14.8333 15.833 15.1875 15.5413 15.4791C15.2497 15.7708 14.8955 15.9166 14.4788 15.9166H1.64551ZM8.06217 13.1041C9.02051 13.1041 9.83301 12.7708 10.4997 12.1041C11.1663 11.4375 11.4997 10.625 11.4997 9.66665C11.4997 8.70831 11.1663 7.89581 10.4997 7.22915C9.83301 6.56248 9.02051 6.22915 8.06217 6.22915C7.10384 6.22915 6.29134 6.56248 5.62467 7.22915C4.95801 7.89581 4.62467 8.70831 4.62467 9.66665C4.62467 10.625 4.95801 11.4375 5.62467 12.1041C6.29134 12.7708 7.10384 13.1041 8.06217 13.1041ZM8.06217 11.8541C7.45106 11.8541 6.93356 11.6425 6.50967 11.2191C6.08634 10.7953 5.87467 10.2778 5.87467 9.66665C5.87467 9.05554 6.08634 8.53804 6.50967 8.11415C6.93356 7.69081 7.45106 7.47915 8.06217 7.47915C8.67329 7.47915 9.19079 7.69081 9.61467 8.11415C10.038 8.53804 10.2497 9.05554 10.2497 9.66665C10.2497 10.2778 10.038 10.7953 9.61467 11.2191C9.19079 11.6425 8.67329 11.8541 8.06217 11.8541Z" fill="#7FB5FF"/>
</svg>
