<svg width="16" height="16" viewBox="0 0 16 16" fill="none" xmlns="http://www.w3.org/2000/svg">
<path d="M3.02148 12.4167C3.72982 11.8889 4.50065 11.4722 5.33398 11.1667C6.16732 10.8611 7.05621 10.7083 8.00065 10.7083C8.9451 10.7083 9.83398 10.8611 10.6673 11.1667C11.5007 11.4722 12.2715 11.8889 12.9798 12.4167C13.4937 11.8472 13.9034 11.1875 14.209 10.4375C14.5145 9.6875 14.6673 8.875 14.6673 8C14.6673 6.15278 14.0182 4.57972 12.7198 3.28083C11.4209 1.9825 9.84787 1.33333 8.00065 1.33333C6.15343 1.33333 4.58065 1.9825 3.28232 3.28083C1.98343 4.57972 1.33398 6.15278 1.33398 8C1.33398 8.875 1.48676 9.6875 1.79232 10.4375C2.09787 11.1875 2.5076 11.8472 3.02148 12.4167ZM8.00065 8.625C7.23676 8.625 6.59454 8.36444 6.07398 7.84333C5.55287 7.32278 5.29232 6.68056 5.29232 5.91667C5.29232 5.15278 5.55287 4.51056 6.07398 3.99C6.59454 3.46889 7.23676 3.20833 8.00065 3.20833C8.76454 3.20833 9.40676 3.46889 9.92732 3.99C10.4484 4.51056 10.709 5.15278 10.709 5.91667C10.709 6.68056 10.4484 7.32278 9.92732 7.84333C9.40676 8.36444 8.76454 8.625 8.00065 8.625ZM8.00065 15.9167C6.90343 15.9167 5.87232 15.7083 4.90732 15.2917C3.94176 14.875 3.10482 14.3125 2.39648 13.6042C1.68815 12.8958 1.12565 12.0589 0.708984 11.0933C0.292318 10.1283 0.0839844 9.09722 0.0839844 8C0.0839844 6.90278 0.292318 5.87139 0.708984 4.90583C1.12565 3.94083 1.68815 3.10417 2.39648 2.39583C3.10482 1.6875 3.94176 1.125 4.90732 0.708334C5.87232 0.291667 6.90343 0.083334 8.00065 0.083334C9.09787 0.083334 10.1293 0.291667 11.0948 0.708334C12.0598 1.125 12.8965 1.6875 13.6048 2.39583C14.3132 3.10417 14.8757 3.94083 15.2923 4.90583C15.709 5.87139 15.9173 6.90278 15.9173 8C15.9173 9.09722 15.709 10.1283 15.2923 11.0933C14.8757 12.0589 14.3132 12.8958 13.6048 13.6042C12.8965 14.3125 12.0598 14.875 11.0948 15.2917C10.1293 15.7083 9.09787 15.9167 8.00065 15.9167ZM8.00065 14.6667C8.75065 14.6667 9.47648 14.545 10.1782 14.3017C10.8793 14.0589 11.5007 13.7222 12.0423 13.2917C11.5007 12.875 10.8859 12.5486 10.1982 12.3125C9.51093 12.0764 8.77843 11.9583 8.00065 11.9583C7.22287 11.9583 6.49037 12.0731 5.80315 12.3025C5.11537 12.5314 4.50065 12.8611 3.95898 13.2917C4.50065 13.7222 5.12204 14.0589 5.82315 14.3017C6.52482 14.545 7.25065 14.6667 8.00065 14.6667ZM8.00065 7.375C8.41732 7.375 8.76454 7.23611 9.04232 6.95833C9.3201 6.68056 9.45898 6.33333 9.45898 5.91667C9.45898 5.5 9.3201 5.15278 9.04232 4.875C8.76454 4.59722 8.41732 4.45833 8.00065 4.45833C7.58398 4.45833 7.23676 4.59722 6.95898 4.875C6.68121 5.15278 6.54232 5.5 6.54232 5.91667C6.54232 6.33333 6.68121 6.68056 6.95898 6.95833C7.23676 7.23611 7.58398 7.375 8.00065 7.375Z" fill="#7FB5FF"/>
</svg>
