<svg width="16" height="16" viewBox="0 0 16 16" fill="none" xmlns="http://www.w3.org/2000/svg">
<path d="M11.3327 9.25C11.6938 9.25 11.9924 9.13194 12.2285 8.89583C12.4646 8.65972 12.5827 8.36111 12.5827 8C12.5827 7.63889 12.4646 7.34028 12.2285 7.10417C11.9924 6.86806 11.6938 6.75 11.3327 6.75C10.9716 6.75 10.673 6.86806 10.4368 7.10417C10.2007 7.34028 10.0827 7.63889 10.0827 8C10.0827 8.36111 10.2007 8.65972 10.4368 8.89583C10.673 9.13194 10.9716 9.25 11.3327 9.25ZM2.16602 13V13.8333V2.16667V13ZM2.41602 15.0833C1.99935 15.0833 1.64518 14.9375 1.35352 14.6458C1.06185 14.3542 0.916016 14 0.916016 13.5833V2.41667C0.916016 2 1.06185 1.64583 1.35352 1.35417C1.64518 1.0625 1.99935 0.916666 2.41602 0.916666H13.5827C13.9993 0.916666 14.3535 1.0625 14.6452 1.35417C14.9368 1.64583 15.0827 2 15.0827 2.41667V4.6875H13.8327V2.41667C13.8327 2.34722 13.8085 2.28833 13.7602 2.24C13.7113 2.19111 13.6521 2.16667 13.5827 2.16667H2.41602C2.34657 2.16667 2.28768 2.19111 2.23935 2.24C2.19046 2.28833 2.16602 2.34722 2.16602 2.41667V13.5833C2.16602 13.6528 2.19046 13.7119 2.23935 13.7608C2.28768 13.8092 2.34657 13.8333 2.41602 13.8333H13.5827C13.6521 13.8333 13.7113 13.8092 13.7602 13.7608C13.8085 13.7119 13.8327 13.6528 13.8327 13.5833V11.3125H15.0827V13.5833C15.0827 14 14.9368 14.3542 14.6452 14.6458C14.3535 14.9375 13.9993 15.0833 13.5827 15.0833H2.41602ZM9.08268 11.75C8.66602 11.75 8.31185 11.6042 8.02018 11.3125C7.72852 11.0208 7.58268 10.6667 7.58268 10.25V5.75C7.58268 5.33333 7.72852 4.97917 8.02018 4.6875C8.31185 4.39583 8.66602 4.25 9.08268 4.25H14.416C14.8327 4.25 15.1868 4.39583 15.4785 4.6875C15.7702 4.97917 15.916 5.33333 15.916 5.75V10.25C15.916 10.6667 15.7702 11.0208 15.4785 11.3125C15.1868 11.6042 14.8327 11.75 14.416 11.75H9.08268ZM14.416 10.5C14.4855 10.5 14.5446 10.4756 14.5935 10.4267C14.6418 10.3783 14.666 10.3194 14.666 10.25V5.75C14.666 5.68056 14.6418 5.62139 14.5935 5.5725C14.5446 5.52417 14.4855 5.5 14.416 5.5H9.08268C9.01324 5.5 8.95435 5.52417 8.90602 5.5725C8.85713 5.62139 8.83268 5.68056 8.83268 5.75V10.25C8.83268 10.3194 8.85713 10.3783 8.90602 10.4267C8.95435 10.4756 9.01324 10.5 9.08268 10.5H14.416Z" fill="#FEE2C5"/>
</svg>
